<svg xmlns="http://www.w3.org/2000/svg" xmlns:xlink="http://www.w3.org/1999/xlink" width="1024" zoomAndPan="magnify" viewBox="0 0 768 767.999994" height="1024" preserveAspectRatio="xMidYMid meet" version="1.0"><defs><clipPath id="014c15c706"><path d="M 159.839844 7 L 606 7 L 606 528 L 159.839844 528 Z M 159.839844 7 " clip-rule="nonzero"/></clipPath><clipPath id="2c1b5210c9"><path d="M 159.839844 434 L 606 434 L 606 761 L 159.839844 761 Z M 159.839844 434 " clip-rule="nonzero"/></clipPath><clipPath id="0495be38f2"><path d="M 231 242.730469 L 537 242.730469 L 537 413.730469 L 231 413.730469 Z M 231 242.730469 " clip-rule="nonzero"/></clipPath></defs><g clip-path="url(#014c15c706)"><path fill="#000000" d="M 605.832031 391.054688 L 382.523438 7.792969 L 159.054688 391.054688 L 382.523438 527.429688 Z M 605.832031 391.054688 " fill-opacity="1" fill-rule="nonzero"/></g><g clip-path="url(#2c1b5210c9)"><path fill="#000000" d="M 382.523438 760.207031 L 605.988281 434.851562 L 382.523438 571.226562 L 159.054688 434.851562 Z M 382.523438 760.207031 " fill-opacity="1" fill-rule="nonzero"/></g><path fill="#ffffff" d="M 383.988281 300.015625 C 368.472656 300.015625 355.847656 312.640625 355.847656 328.15625 C 355.847656 343.6875 368.472656 356.324219 383.988281 356.324219 C 399.519531 356.324219 412.152344 343.6875 412.152344 328.15625 C 412.152344 312.640625 399.519531 300.015625 383.988281 300.015625 " fill-opacity="1" fill-rule="nonzero"/><g clip-path="url(#0495be38f2)"><path fill="#ffffff" d="M 518.304688 329.945312 C 516.320312 332.179688 478.515625 374.226562 426.980469 391.609375 C 446.875 377.871094 459.941406 354.914062 459.941406 328.960938 C 459.941406 300.882812 444.652344 276.308594 421.960938 263.125 C 476.042969 279.355469 516.261719 324.082031 518.308594 326.394531 L 519.882812 328.164062 Z M 249.683594 329.945312 L 248.105469 328.164062 L 249.660156 326.410156 C 251.710938 324.117188 291.816406 279.882812 345.269531 263.410156 C 322.847656 276.664062 307.773438 301.082031 307.773438 328.960938 C 307.773438 354.765625 320.6875 377.605469 340.386719 391.367188 C 289.25 373.84375 251.652344 332.160156 249.683594 329.945312 Z M 383.855469 390.480469 C 349.933594 390.480469 322.335938 362.886719 322.335938 328.960938 C 322.335938 295.035156 349.933594 267.433594 383.855469 267.433594 C 417.78125 267.433594 445.378906 295.035156 445.378906 328.960938 C 445.378906 362.886719 417.78125 390.480469 383.855469 390.480469 Z M 535.066406 323.332031 L 529.203125 316.726562 C 526.523438 313.703125 462.699219 242.734375 383.996094 242.734375 C 351.074219 242.734375 316.976562 254.839844 282.65625 278.714844 C 257.257812 296.378906 240.617188 314.675781 238.785156 316.726562 L 232.925781 323.335938 C 230.480469 326.089844 230.480469 330.238281 232.925781 332.996094 L 238.792969 339.613281 C 240.585938 341.628906 257.042969 359.816406 282.628906 377.617188 C 316.945312 401.492188 351.046875 413.597656 383.996094 413.597656 C 462.699219 413.597656 526.523438 342.625 529.199219 339.609375 L 535.066406 333 C 537.515625 330.242188 537.515625 326.089844 535.066406 323.332031 " fill-opacity="1" fill-rule="nonzero"/></g></svg>